<mxfile host="app.diagrams.net" agent="Mozilla/5.0 (Windows NT 10.0; Win64; x64) AppleWebKit/537.36 (KHTML, like Gecko) Chrome/130.0.0.0 YaBrowser/24.12.0.0 Safari/537.36" version="26.0.11">
  <diagram name="Страница — 1" id="qB9rwnH75P2E-T5pCWqa">
    <mxGraphModel dx="1173" dy="628" grid="1" gridSize="10" guides="1" tooltips="1" connect="1" arrows="1" fold="1" page="1" pageScale="1" pageWidth="827" pageHeight="1169" math="0" shadow="0">
      <root>
        <mxCell id="0" />
        <mxCell id="1" parent="0" />
        <mxCell id="LFctr8FzbRo6iUbdBAJS-1" value="&lt;i&gt;AElement (ABC)&lt;/i&gt;" style="swimlane;fontStyle=1;align=center;verticalAlign=top;childLayout=stackLayout;horizontal=1;startSize=26;horizontalStack=0;resizeParent=1;resizeParentMax=0;resizeLast=0;collapsible=1;marginBottom=0;whiteSpace=wrap;html=1;" vertex="1" parent="1">
          <mxGeometry x="420" y="490" width="270" height="112" as="geometry" />
        </mxCell>
        <mxCell id="LFctr8FzbRo6iUbdBAJS-2" value="&lt;i&gt;- type (str)&lt;/i&gt;" style="text;strokeColor=none;fillColor=none;align=left;verticalAlign=top;spacingLeft=4;spacingRight=4;overflow=hidden;rotatable=0;points=[[0,0.5],[1,0.5]];portConstraint=eastwest;whiteSpace=wrap;html=1;" vertex="1" parent="LFctr8FzbRo6iUbdBAJS-1">
          <mxGeometry y="26" width="270" height="26" as="geometry" />
        </mxCell>
        <mxCell id="LFctr8FzbRo6iUbdBAJS-3" value="" style="line;strokeWidth=1;fillColor=none;align=left;verticalAlign=middle;spacingTop=-1;spacingLeft=3;spacingRight=3;rotatable=0;labelPosition=right;points=[];portConstraint=eastwest;strokeColor=inherit;" vertex="1" parent="LFctr8FzbRo6iUbdBAJS-1">
          <mxGeometry y="52" width="270" height="8" as="geometry" />
        </mxCell>
        <mxCell id="LFctr8FzbRo6iUbdBAJS-4" value="# add(element:Element): void" style="text;strokeColor=none;fillColor=none;align=left;verticalAlign=top;spacingLeft=4;spacingRight=4;overflow=hidden;rotatable=0;points=[[0,0.5],[1,0.5]];portConstraint=eastwest;whiteSpace=wrap;html=1;" vertex="1" parent="LFctr8FzbRo6iUbdBAJS-1">
          <mxGeometry y="60" width="270" height="26" as="geometry" />
        </mxCell>
        <mxCell id="LFctr8FzbRo6iUbdBAJS-12" value="# remove(element:Element): void" style="text;strokeColor=none;fillColor=none;align=left;verticalAlign=top;spacingLeft=4;spacingRight=4;overflow=hidden;rotatable=0;points=[[0,0.5],[1,0.5]];portConstraint=eastwest;whiteSpace=wrap;html=1;" vertex="1" parent="LFctr8FzbRo6iUbdBAJS-1">
          <mxGeometry y="86" width="270" height="26" as="geometry" />
        </mxCell>
        <mxCell id="LFctr8FzbRo6iUbdBAJS-13" value="&lt;i&gt;Bank&lt;/i&gt;" style="swimlane;fontStyle=1;align=center;verticalAlign=top;childLayout=stackLayout;horizontal=1;startSize=26;horizontalStack=0;resizeParent=1;resizeParentMax=0;resizeLast=0;collapsible=1;marginBottom=0;whiteSpace=wrap;html=1;" vertex="1" parent="1">
          <mxGeometry x="430" y="290" width="270" height="86" as="geometry" />
        </mxCell>
        <mxCell id="LFctr8FzbRo6iUbdBAJS-14" value="- name (str)" style="text;strokeColor=none;fillColor=none;align=left;verticalAlign=top;spacingLeft=4;spacingRight=4;overflow=hidden;rotatable=0;points=[[0,0.5],[1,0.5]];portConstraint=eastwest;whiteSpace=wrap;html=1;" vertex="1" parent="LFctr8FzbRo6iUbdBAJS-13">
          <mxGeometry y="26" width="270" height="26" as="geometry" />
        </mxCell>
        <mxCell id="LFctr8FzbRo6iUbdBAJS-15" value="- elements: list[Element]" style="text;strokeColor=none;fillColor=none;align=left;verticalAlign=top;spacingLeft=4;spacingRight=4;overflow=hidden;rotatable=0;points=[[0,0.5],[1,0.5]];portConstraint=eastwest;whiteSpace=wrap;html=1;" vertex="1" parent="LFctr8FzbRo6iUbdBAJS-13">
          <mxGeometry y="52" width="270" height="26" as="geometry" />
        </mxCell>
        <mxCell id="LFctr8FzbRo6iUbdBAJS-18" value="" style="line;strokeWidth=1;fillColor=none;align=left;verticalAlign=middle;spacingTop=-1;spacingLeft=3;spacingRight=3;rotatable=0;labelPosition=right;points=[];portConstraint=eastwest;strokeColor=inherit;" vertex="1" parent="LFctr8FzbRo6iUbdBAJS-13">
          <mxGeometry y="78" width="270" height="8" as="geometry" />
        </mxCell>
        <mxCell id="LFctr8FzbRo6iUbdBAJS-21" value="1" style="endArrow=open;html=1;endSize=12;startArrow=diamondThin;startSize=14;startFill=1;edgeStyle=orthogonalEdgeStyle;align=left;verticalAlign=bottom;rounded=0;exitX=0.5;exitY=1;exitDx=0;exitDy=0;entryX=0.539;entryY=0.006;entryDx=0;entryDy=0;entryPerimeter=0;" edge="1" parent="1" source="LFctr8FzbRo6iUbdBAJS-13" target="LFctr8FzbRo6iUbdBAJS-1">
          <mxGeometry x="-1" y="3" relative="1" as="geometry">
            <mxPoint x="590" y="390" as="sourcePoint" />
            <mxPoint x="560" y="489" as="targetPoint" />
          </mxGeometry>
        </mxCell>
        <mxCell id="LFctr8FzbRo6iUbdBAJS-22" value="&lt;font style=&quot;font-size: 22px;&quot;&gt;*&lt;/font&gt;" style="edgeLabel;html=1;align=center;verticalAlign=middle;resizable=0;points=[];" vertex="1" connectable="0" parent="1">
          <mxGeometry x="760.0046701890445" y="239.99984295881228" as="geometry">
            <mxPoint x="-160" y="243" as="offset" />
          </mxGeometry>
        </mxCell>
        <mxCell id="LFctr8FzbRo6iUbdBAJS-27" value="" style="endArrow=block;endSize=16;endFill=0;html=1;rounded=0;entryX=1;entryY=0.5;entryDx=0;entryDy=0;edgeStyle=orthogonalEdgeStyle;" edge="1" parent="1">
          <mxGeometry width="160" relative="1" as="geometry">
            <mxPoint x="868" y="716" as="sourcePoint" />
            <mxPoint x="568" y="602.004" as="targetPoint" />
            <Array as="points">
              <mxPoint x="868" y="656" />
              <mxPoint x="568" y="656" />
            </Array>
          </mxGeometry>
        </mxCell>
        <mxCell id="LFctr8FzbRo6iUbdBAJS-28" value="" style="endArrow=block;endSize=16;endFill=0;html=1;rounded=0;edgeStyle=orthogonalEdgeStyle;exitX=0.5;exitY=0;exitDx=0;exitDy=0;entryX=0.536;entryY=0.991;entryDx=0;entryDy=0;entryPerimeter=0;" edge="1" parent="1">
          <mxGeometry width="160" relative="1" as="geometry">
            <mxPoint x="245" y="712" as="sourcePoint" />
            <mxPoint x="568.0799999999997" y="602" as="targetPoint" />
            <Array as="points">
              <mxPoint x="245" y="656" />
              <mxPoint x="568" y="656" />
            </Array>
          </mxGeometry>
        </mxCell>
        <mxCell id="LFctr8FzbRo6iUbdBAJS-29" value="" style="endArrow=none;html=1;edgeStyle=orthogonalEdgeStyle;rounded=0;entryX=0.5;entryY=0;entryDx=0;entryDy=0;" edge="1" parent="1">
          <mxGeometry relative="1" as="geometry">
            <mxPoint x="568" y="650" as="sourcePoint" />
            <mxPoint x="568" y="710" as="targetPoint" />
            <Array as="points">
              <mxPoint x="568" y="670" />
              <mxPoint x="568" y="670" />
            </Array>
          </mxGeometry>
        </mxCell>
        <mxCell id="LFctr8FzbRo6iUbdBAJS-34" value="Employee(Element&amp;nbsp;)" style="swimlane;fontStyle=1;align=center;verticalAlign=top;childLayout=stackLayout;horizontal=1;startSize=26;horizontalStack=0;resizeParent=1;resizeParentMax=0;resizeLast=0;collapsible=1;marginBottom=0;whiteSpace=wrap;html=1;" vertex="1" parent="1">
          <mxGeometry x="720" y="710" width="270" height="112" as="geometry" />
        </mxCell>
        <mxCell id="LFctr8FzbRo6iUbdBAJS-35" value="- name (str)" style="text;strokeColor=none;fillColor=none;align=left;verticalAlign=top;spacingLeft=4;spacingRight=4;overflow=hidden;rotatable=0;points=[[0,0.5],[1,0.5]];portConstraint=eastwest;whiteSpace=wrap;html=1;" vertex="1" parent="LFctr8FzbRo6iUbdBAJS-34">
          <mxGeometry y="26" width="270" height="26" as="geometry" />
        </mxCell>
        <mxCell id="LFctr8FzbRo6iUbdBAJS-36" value="" style="line;strokeWidth=1;fillColor=none;align=left;verticalAlign=middle;spacingTop=-1;spacingLeft=3;spacingRight=3;rotatable=0;labelPosition=right;points=[];portConstraint=eastwest;strokeColor=inherit;" vertex="1" parent="LFctr8FzbRo6iUbdBAJS-34">
          <mxGeometry y="52" width="270" height="8" as="geometry" />
        </mxCell>
        <mxCell id="LFctr8FzbRo6iUbdBAJS-37" value="+ add_employee(): void" style="text;strokeColor=none;fillColor=none;align=left;verticalAlign=top;spacingLeft=4;spacingRight=4;overflow=hidden;rotatable=0;points=[[0,0.5],[1,0.5]];portConstraint=eastwest;whiteSpace=wrap;html=1;" vertex="1" parent="LFctr8FzbRo6iUbdBAJS-34">
          <mxGeometry y="60" width="270" height="26" as="geometry" />
        </mxCell>
        <mxCell id="LFctr8FzbRo6iUbdBAJS-38" value="+ remove_employee(): void" style="text;strokeColor=none;fillColor=none;align=left;verticalAlign=top;spacingLeft=4;spacingRight=4;overflow=hidden;rotatable=0;points=[[0,0.5],[1,0.5]];portConstraint=eastwest;whiteSpace=wrap;html=1;" vertex="1" parent="LFctr8FzbRo6iUbdBAJS-34">
          <mxGeometry y="86" width="270" height="26" as="geometry" />
        </mxCell>
        <mxCell id="LFctr8FzbRo6iUbdBAJS-39" value="Client(Element&amp;nbsp;)" style="swimlane;fontStyle=1;align=center;verticalAlign=top;childLayout=stackLayout;horizontal=1;startSize=26;horizontalStack=0;resizeParent=1;resizeParentMax=0;resizeLast=0;collapsible=1;marginBottom=0;whiteSpace=wrap;html=1;" vertex="1" parent="1">
          <mxGeometry x="120" y="710" width="270" height="112" as="geometry" />
        </mxCell>
        <mxCell id="LFctr8FzbRo6iUbdBAJS-40" value="- name (str)" style="text;strokeColor=none;fillColor=none;align=left;verticalAlign=top;spacingLeft=4;spacingRight=4;overflow=hidden;rotatable=0;points=[[0,0.5],[1,0.5]];portConstraint=eastwest;whiteSpace=wrap;html=1;" vertex="1" parent="LFctr8FzbRo6iUbdBAJS-39">
          <mxGeometry y="26" width="270" height="26" as="geometry" />
        </mxCell>
        <mxCell id="LFctr8FzbRo6iUbdBAJS-41" value="" style="line;strokeWidth=1;fillColor=none;align=left;verticalAlign=middle;spacingTop=-1;spacingLeft=3;spacingRight=3;rotatable=0;labelPosition=right;points=[];portConstraint=eastwest;strokeColor=inherit;" vertex="1" parent="LFctr8FzbRo6iUbdBAJS-39">
          <mxGeometry y="52" width="270" height="8" as="geometry" />
        </mxCell>
        <mxCell id="LFctr8FzbRo6iUbdBAJS-49" value="+ add(account:Account): void" style="text;strokeColor=none;fillColor=none;align=left;verticalAlign=top;spacingLeft=4;spacingRight=4;overflow=hidden;rotatable=0;points=[[0,0.5],[1,0.5]];portConstraint=eastwest;whiteSpace=wrap;html=1;" vertex="1" parent="LFctr8FzbRo6iUbdBAJS-39">
          <mxGeometry y="60" width="270" height="26" as="geometry" />
        </mxCell>
        <mxCell id="LFctr8FzbRo6iUbdBAJS-50" value="+ remove(account:Account): void" style="text;strokeColor=none;fillColor=none;align=left;verticalAlign=top;spacingLeft=4;spacingRight=4;overflow=hidden;rotatable=0;points=[[0,0.5],[1,0.5]];portConstraint=eastwest;whiteSpace=wrap;html=1;" vertex="1" parent="LFctr8FzbRo6iUbdBAJS-39">
          <mxGeometry y="86" width="270" height="26" as="geometry" />
        </mxCell>
        <mxCell id="LFctr8FzbRo6iUbdBAJS-44" value="Account(Element&amp;nbsp;)" style="swimlane;fontStyle=1;align=center;verticalAlign=top;childLayout=stackLayout;horizontal=1;startSize=26;horizontalStack=0;resizeParent=1;resizeParentMax=0;resizeLast=0;collapsible=1;marginBottom=0;whiteSpace=wrap;html=1;" vertex="1" parent="1">
          <mxGeometry x="430" y="710" width="270" height="112" as="geometry" />
        </mxCell>
        <mxCell id="LFctr8FzbRo6iUbdBAJS-45" value="- number (int)" style="text;strokeColor=none;fillColor=none;align=left;verticalAlign=top;spacingLeft=4;spacingRight=4;overflow=hidden;rotatable=0;points=[[0,0.5],[1,0.5]];portConstraint=eastwest;whiteSpace=wrap;html=1;" vertex="1" parent="LFctr8FzbRo6iUbdBAJS-44">
          <mxGeometry y="26" width="270" height="26" as="geometry" />
        </mxCell>
        <mxCell id="LFctr8FzbRo6iUbdBAJS-46" value="" style="line;strokeWidth=1;fillColor=none;align=left;verticalAlign=middle;spacingTop=-1;spacingLeft=3;spacingRight=3;rotatable=0;labelPosition=right;points=[];portConstraint=eastwest;strokeColor=inherit;" vertex="1" parent="LFctr8FzbRo6iUbdBAJS-44">
          <mxGeometry y="52" width="270" height="8" as="geometry" />
        </mxCell>
        <mxCell id="LFctr8FzbRo6iUbdBAJS-47" value="+ add_account(): void" style="text;strokeColor=none;fillColor=none;align=left;verticalAlign=top;spacingLeft=4;spacingRight=4;overflow=hidden;rotatable=0;points=[[0,0.5],[1,0.5]];portConstraint=eastwest;whiteSpace=wrap;html=1;" vertex="1" parent="LFctr8FzbRo6iUbdBAJS-44">
          <mxGeometry y="60" width="270" height="26" as="geometry" />
        </mxCell>
        <mxCell id="LFctr8FzbRo6iUbdBAJS-48" value="+ remove_account(): void" style="text;strokeColor=none;fillColor=none;align=left;verticalAlign=top;spacingLeft=4;spacingRight=4;overflow=hidden;rotatable=0;points=[[0,0.5],[1,0.5]];portConstraint=eastwest;whiteSpace=wrap;html=1;" vertex="1" parent="LFctr8FzbRo6iUbdBAJS-44">
          <mxGeometry y="86" width="270" height="26" as="geometry" />
        </mxCell>
        <mxCell id="LFctr8FzbRo6iUbdBAJS-51" value="" style="html=1;verticalAlign=bottom;endArrow=open;dashed=1;endSize=8;rounded=0;edgeStyle=orthogonalEdgeStyle;exitX=0.345;exitY=0.85;exitDx=0;exitDy=0;exitPerimeter=0;entryX=0.444;entryY=1.124;entryDx=0;entryDy=0;entryPerimeter=0;" edge="1" parent="1" source="LFctr8FzbRo6iUbdBAJS-50" target="LFctr8FzbRo6iUbdBAJS-48">
          <mxGeometry x="-0.0004" relative="1" as="geometry">
            <mxPoint x="200" y="950" as="sourcePoint" />
            <mxPoint x="550" y="890" as="targetPoint" />
            <Array as="points">
              <mxPoint x="213" y="860" />
              <mxPoint x="550" y="860" />
            </Array>
            <mxPoint as="offset" />
          </mxGeometry>
        </mxCell>
        <mxCell id="LFctr8FzbRo6iUbdBAJS-52" value="Debit_account(Account&amp;nbsp;)" style="swimlane;fontStyle=1;align=center;verticalAlign=top;childLayout=stackLayout;horizontal=1;startSize=26;horizontalStack=0;resizeParent=1;resizeParentMax=0;resizeLast=0;collapsible=1;marginBottom=0;whiteSpace=wrap;html=1;" vertex="1" parent="1">
          <mxGeometry x="360" y="920" width="160" height="60" as="geometry" />
        </mxCell>
        <mxCell id="LFctr8FzbRo6iUbdBAJS-53" value="- type (str)" style="text;strokeColor=none;fillColor=none;align=left;verticalAlign=top;spacingLeft=4;spacingRight=4;overflow=hidden;rotatable=0;points=[[0,0.5],[1,0.5]];portConstraint=eastwest;whiteSpace=wrap;html=1;" vertex="1" parent="LFctr8FzbRo6iUbdBAJS-52">
          <mxGeometry y="26" width="160" height="26" as="geometry" />
        </mxCell>
        <mxCell id="LFctr8FzbRo6iUbdBAJS-54" value="" style="line;strokeWidth=1;fillColor=none;align=left;verticalAlign=middle;spacingTop=-1;spacingLeft=3;spacingRight=3;rotatable=0;labelPosition=right;points=[];portConstraint=eastwest;strokeColor=inherit;" vertex="1" parent="LFctr8FzbRo6iUbdBAJS-52">
          <mxGeometry y="52" width="160" height="8" as="geometry" />
        </mxCell>
        <mxCell id="LFctr8FzbRo6iUbdBAJS-57" value="Credit_account(Account&amp;nbsp;)" style="swimlane;fontStyle=1;align=center;verticalAlign=top;childLayout=stackLayout;horizontal=1;startSize=26;horizontalStack=0;resizeParent=1;resizeParentMax=0;resizeLast=0;collapsible=1;marginBottom=0;whiteSpace=wrap;html=1;" vertex="1" parent="1">
          <mxGeometry x="570" y="920" width="150" height="60" as="geometry" />
        </mxCell>
        <mxCell id="LFctr8FzbRo6iUbdBAJS-58" value="- type (str)" style="text;strokeColor=none;fillColor=none;align=left;verticalAlign=top;spacingLeft=4;spacingRight=4;overflow=hidden;rotatable=0;points=[[0,0.5],[1,0.5]];portConstraint=eastwest;whiteSpace=wrap;html=1;" vertex="1" parent="LFctr8FzbRo6iUbdBAJS-57">
          <mxGeometry y="26" width="150" height="26" as="geometry" />
        </mxCell>
        <mxCell id="LFctr8FzbRo6iUbdBAJS-59" value="" style="line;strokeWidth=1;fillColor=none;align=left;verticalAlign=middle;spacingTop=-1;spacingLeft=3;spacingRight=3;rotatable=0;labelPosition=right;points=[];portConstraint=eastwest;strokeColor=inherit;" vertex="1" parent="LFctr8FzbRo6iUbdBAJS-57">
          <mxGeometry y="52" width="150" height="8" as="geometry" />
        </mxCell>
        <mxCell id="LFctr8FzbRo6iUbdBAJS-60" value="" style="endArrow=block;endSize=16;endFill=0;html=1;rounded=0;entryX=1;entryY=0.5;entryDx=0;entryDy=0;edgeStyle=orthogonalEdgeStyle;" edge="1" parent="1">
          <mxGeometry width="160" relative="1" as="geometry">
            <mxPoint x="640" y="920" as="sourcePoint" />
            <mxPoint x="576.5" y="822.004" as="targetPoint" />
            <Array as="points">
              <mxPoint x="640" y="876" />
              <mxPoint x="577" y="876" />
            </Array>
          </mxGeometry>
        </mxCell>
        <mxCell id="LFctr8FzbRo6iUbdBAJS-61" value="" style="endArrow=block;endSize=16;endFill=0;html=1;rounded=0;edgeStyle=orthogonalEdgeStyle;entryX=0.536;entryY=0.991;entryDx=0;entryDy=0;entryPerimeter=0;" edge="1" parent="1">
          <mxGeometry width="160" relative="1" as="geometry">
            <mxPoint x="440" y="920" as="sourcePoint" />
            <mxPoint x="576.5799999999997" y="822" as="targetPoint" />
            <Array as="points">
              <mxPoint x="440" y="876" />
              <mxPoint x="577" y="876" />
            </Array>
          </mxGeometry>
        </mxCell>
        <mxCell id="LFctr8FzbRo6iUbdBAJS-62" value="Cashier(Employee&amp;nbsp;)" style="swimlane;fontStyle=1;align=center;verticalAlign=top;childLayout=stackLayout;horizontal=1;startSize=26;horizontalStack=0;resizeParent=1;resizeParentMax=0;resizeLast=0;collapsible=1;marginBottom=0;whiteSpace=wrap;html=1;" vertex="1" parent="1">
          <mxGeometry x="740" y="920" width="140" height="60" as="geometry" />
        </mxCell>
        <mxCell id="LFctr8FzbRo6iUbdBAJS-63" value="- type (str)" style="text;strokeColor=none;fillColor=none;align=left;verticalAlign=top;spacingLeft=4;spacingRight=4;overflow=hidden;rotatable=0;points=[[0,0.5],[1,0.5]];portConstraint=eastwest;whiteSpace=wrap;html=1;" vertex="1" parent="LFctr8FzbRo6iUbdBAJS-62">
          <mxGeometry y="26" width="140" height="26" as="geometry" />
        </mxCell>
        <mxCell id="LFctr8FzbRo6iUbdBAJS-64" value="" style="line;strokeWidth=1;fillColor=none;align=left;verticalAlign=middle;spacingTop=-1;spacingLeft=3;spacingRight=3;rotatable=0;labelPosition=right;points=[];portConstraint=eastwest;strokeColor=inherit;" vertex="1" parent="LFctr8FzbRo6iUbdBAJS-62">
          <mxGeometry y="52" width="140" height="8" as="geometry" />
        </mxCell>
        <mxCell id="LFctr8FzbRo6iUbdBAJS-65" value="Manager(Employee&amp;nbsp;)" style="swimlane;fontStyle=1;align=center;verticalAlign=top;childLayout=stackLayout;horizontal=1;startSize=26;horizontalStack=0;resizeParent=1;resizeParentMax=0;resizeLast=0;collapsible=1;marginBottom=0;whiteSpace=wrap;html=1;" vertex="1" parent="1">
          <mxGeometry x="890" y="920" width="150" height="60" as="geometry" />
        </mxCell>
        <mxCell id="LFctr8FzbRo6iUbdBAJS-66" value="- type (str)" style="text;strokeColor=none;fillColor=none;align=left;verticalAlign=top;spacingLeft=4;spacingRight=4;overflow=hidden;rotatable=0;points=[[0,0.5],[1,0.5]];portConstraint=eastwest;whiteSpace=wrap;html=1;" vertex="1" parent="LFctr8FzbRo6iUbdBAJS-65">
          <mxGeometry y="26" width="150" height="26" as="geometry" />
        </mxCell>
        <mxCell id="LFctr8FzbRo6iUbdBAJS-67" value="" style="line;strokeWidth=1;fillColor=none;align=left;verticalAlign=middle;spacingTop=-1;spacingLeft=3;spacingRight=3;rotatable=0;labelPosition=right;points=[];portConstraint=eastwest;strokeColor=inherit;" vertex="1" parent="LFctr8FzbRo6iUbdBAJS-65">
          <mxGeometry y="52" width="150" height="8" as="geometry" />
        </mxCell>
        <mxCell id="LFctr8FzbRo6iUbdBAJS-68" value="" style="endArrow=block;endSize=16;endFill=0;html=1;rounded=0;edgeStyle=orthogonalEdgeStyle;" edge="1" parent="1">
          <mxGeometry width="160" relative="1" as="geometry">
            <mxPoint x="1000" y="920" as="sourcePoint" />
            <mxPoint x="860" y="820" as="targetPoint" />
            <Array as="points">
              <mxPoint x="950" y="920" />
              <mxPoint x="950" y="870" />
              <mxPoint x="860" y="870" />
            </Array>
          </mxGeometry>
        </mxCell>
        <mxCell id="LFctr8FzbRo6iUbdBAJS-69" value="" style="endArrow=block;endSize=16;endFill=0;html=1;rounded=0;edgeStyle=orthogonalEdgeStyle;" edge="1" parent="1">
          <mxGeometry width="160" relative="1" as="geometry">
            <mxPoint x="800" y="920" as="sourcePoint" />
            <mxPoint x="860" y="820" as="targetPoint" />
            <Array as="points">
              <mxPoint x="800" y="870" />
              <mxPoint x="860" y="870" />
            </Array>
          </mxGeometry>
        </mxCell>
        <mxCell id="LFctr8FzbRo6iUbdBAJS-70" value="Credit_card(Credit_account&amp;nbsp;)" style="swimlane;fontStyle=1;align=center;verticalAlign=top;childLayout=stackLayout;horizontal=1;startSize=26;horizontalStack=0;resizeParent=1;resizeParentMax=0;resizeLast=0;collapsible=1;marginBottom=0;whiteSpace=wrap;html=1;" vertex="1" parent="1">
          <mxGeometry x="555" y="1050" width="180" height="60" as="geometry" />
        </mxCell>
        <mxCell id="LFctr8FzbRo6iUbdBAJS-71" value="- type (str)" style="text;strokeColor=none;fillColor=none;align=left;verticalAlign=top;spacingLeft=4;spacingRight=4;overflow=hidden;rotatable=0;points=[[0,0.5],[1,0.5]];portConstraint=eastwest;whiteSpace=wrap;html=1;" vertex="1" parent="LFctr8FzbRo6iUbdBAJS-70">
          <mxGeometry y="26" width="180" height="26" as="geometry" />
        </mxCell>
        <mxCell id="LFctr8FzbRo6iUbdBAJS-72" value="" style="line;strokeWidth=1;fillColor=none;align=left;verticalAlign=middle;spacingTop=-1;spacingLeft=3;spacingRight=3;rotatable=0;labelPosition=right;points=[];portConstraint=eastwest;strokeColor=inherit;" vertex="1" parent="LFctr8FzbRo6iUbdBAJS-70">
          <mxGeometry y="52" width="180" height="8" as="geometry" />
        </mxCell>
      </root>
    </mxGraphModel>
  </diagram>
</mxfile>
